<svg width="14" height="15" viewBox="0 0 14 15" fill="none" xmlns="http://www.w3.org/2000/svg">
<path fill-rule="evenodd" clip-rule="evenodd" d="M12.3529 1.5H11.5809V0H10.0368V1.5H3.86029V0H2.31618V1.5H1.54412C0.687132 1.5 0 2.175 0 3V13.5C0 14.325 0.687132 15 1.54412 15H12.3529C13.2022 15 13.8971 14.325 13.8971 13.5V3C13.8971 2.175 13.2022 1.5 12.3529 1.5ZM12.3529 13.5H1.54412V5.25H12.3529V13.5ZM2.70221 8.25C2.70221 7.215 3.56691 6.375 4.63235 6.375C5.69779 6.375 6.5625 7.215 6.5625 8.25C6.5625 9.285 5.69779 10.125 4.63235 10.125C3.56691 10.125 2.70221 9.285 2.70221 8.25Z" fill="#004A82" fill-opacity="0.9"/>
</svg>
